<?xml version="1.0" encoding="utf-8"?>
<!-- Generator: Adobe Illustrator 16.0.0, SVG Export Plug-In . SVG Version: 6.00 Build 0)  -->
<!DOCTYPE svg PUBLIC "-//W3C//DTD SVG 1.1//EN" "http://www.w3.org/Graphics/SVG/1.1/DTD/svg11.dtd">
<svg version="1.1" id="Layer_1" xmlns="http://www.w3.org/2000/svg" xmlns:xlink="http://www.w3.org/1999/xlink" x="0px" y="0px"
	 width="750px" height="750px" viewBox="0 0 750 750" enable-background="new 0 0 750 750" xml:space="preserve">
<g>
	<g>
		<path fill="#FFFFFF" d="M375,0C237.152,0,125,112.153,125,250c0,41.382,10.346,82.412,30.015,118.805l206.314,373.138
			c2.747,4.975,7.98,8.057,13.672,8.057s10.925-3.082,13.672-8.057l206.391-373.261C614.654,332.413,625,291.381,625,249.999
			C625,112.153,512.848,0,375,0z M375,375c-68.924,0-125-56.076-125-125s56.076-125,125-125s125,56.076,125,125S443.924,375,375,375
			z"/>
	</g>
</g>
</svg>
